<?xml version="1.0" encoding="UTF-8"?><svg id="Capa_2" xmlns="http://www.w3.org/2000/svg" xmlns:xlink="http://www.w3.org/1999/xlink" viewBox="0 0 1154.94 383.37"><defs><style>.cls-1{fill:#c15d9e;}.cls-1,.cls-2,.cls-3,.cls-4,.cls-5,.cls-6,.cls-7,.cls-8{stroke-width:0px;}.cls-9{letter-spacing:0em;}.cls-2,.cls-3,.cls-10{fill:#575756;}.cls-11{letter-spacing:0em;}.cls-3{filter:url(#drop-shadow-1);}.cls-12{letter-spacing:0em;}.cls-4{fill:#6b2f28;}.cls-13{stroke-width:8.88px;}.cls-13,.cls-14,.cls-15{fill:none;stroke:#c15d9e;stroke-miterlimit:10;}.cls-5{fill:#964c36;}.cls-14{stroke-width:5.33px;}.cls-6{fill:#f0f1f1;opacity:.34;}.cls-7{fill:#846a89;}.cls-16{letter-spacing:0em;}.cls-15{stroke-width:14.21px;}.cls-10{font-family:SFProDisplay-Semibold, 'SF Pro Display';font-size:53.11px;font-weight:600;}.cls-17{letter-spacing:0em;}.cls-8{fill:#5e4a61;}</style><filter id="drop-shadow-1" filterUnits="userSpaceOnUse"><feOffset dx="7" dy="7"/><feGaussianBlur result="blur" stdDeviation="5"/><feFlood flood-color="#000" flood-opacity=".32"/><feComposite in2="blur" operator="in"/><feComposite in="SourceGraphic"/></filter></defs><g id="Capa_1-2"><path class="cls-2" d="M0,190.47c0-44.16,25.05-71.52,64.41-71.52,32.16,0,56.64,20.06,59.71,49.82h-24.38c-3.26-17.38-17.38-28.8-35.33-28.8-23.81,0-39.07,19.58-39.07,50.49s15.17,50.59,39.17,50.59c18.34,0,31.49-9.89,35.33-26.59h24.29c-4.32,29.66-26.98,47.61-59.71,47.61C24.86,262.09,0,234.92,0,190.47Z"/><path class="cls-2" d="M269.54,190.57c0,44.06-25.34,71.52-65.66,71.52s-65.76-27.45-65.76-71.52,25.34-71.61,65.76-71.61,65.66,27.55,65.66,71.61ZM163.46,190.57c0,30.81,15.65,50.4,40.41,50.4s40.41-19.58,40.41-50.4-15.74-50.49-40.41-50.49-40.41,19.58-40.41,50.49Z"/><path class="cls-2" d="M289.2,259.78V121.26h21.5l68.73,97.05h.86v-97.05h23.81v138.52h-21.31l-68.83-97.15h-.86v97.15h-23.9Z"/><path class="cls-1" d="M555.28,190.57c0,44.06-25.34,71.52-65.66,71.52s-65.76-27.45-65.76-71.52,25.34-71.61,65.76-71.61,65.66,27.55,65.66,71.61ZM441.58,190.56c0,28.98,15.04,55.79,48.11,55.79,35.42,0,50.45-26.81,50.45-55.79s-18.38-56.14-50.45-56.14-48.11,27.08-48.11,56.14ZM496.33,268.86l-41.89,41.44H15.6l6.18-14.21h427.33l27.84-27.67,19.39.44Z"/><path class="cls-7" d="M529.63,209.9c-2.52,5.32-6.11,10.04-10.47,13.87-5.25,4.62-11.63,7.97-18.68,9.58-3.09.7-6.3,1.08-9.61,1.08-.96,0-1.93-.03-2.88-.1h-.04c-.78-.06-1.55-.13-2.32-.23-1.89-.22-3.74-.57-5.54-1.04-5.57-1.44-10.69-3.96-15.13-7.34-4.95-3.75-9.05-8.56-11.99-14.08,5.23-2.03,11.79-3.67,19.22-4.75,2.58-.39,5.27-.7,8.03-.94.11-.02.22-.03.33-.03,4.25-.37,8.72-.56,13.31-.56h.58c8.93.03,17.32.79,24.7,2.1,3.79.67,7.31,1.49,10.49,2.43Z"/><path class="cls-5" d="M480.48,216.73c-.96-1.41-.29-3.16-.64-6.12-.31-2.57.65-5.07.77-7.63.07-1.58.03-2.9-1.39-4.07-2.13-1.75-3.45-4.13-4.4-6.74-.7-1.93-1.18-3.89-1.6-5.89-.08-.39-.07-.67.09-1.05,1.07-2.69,2.19-5.36,3.67-7.86,1.78-3.01,3.82-5.81,6.76-7.81.55-.37,1.16-.68,1.78-.93.88-.35,1.61-.34,2.37.5,2.76,3.08,5.72,6,8.41,9.14,1.69,1.97,2.47,4.45,2.9,7.03.61,3.68-.89,6.74-2.57,9.79-.18.33-.24.77-.5.99-1.6,1.35-1.84,3.1-1.7,5.05.11,1.42.02,2.85.02,4.28.01,2.79.22,2.36,2.62,2.94,1.23.3,2.49.5,3.65,1.04-.13.02-.21.07-.27.13-.19.19-.16.51-.15.55.03.48-2.03,5.39-6.87,7.71-4.29,2.06-10.78,2.1-12.93-1.06Z"/><path class="cls-4" d="M481.81,200.78c3.74,1.23,7.27.87,10.65-1.14-.36,1.32-2.63,3.07-4.43,3.29-2.38.3-4.6-.07-6.22-2.16Z"/><path class="cls-8" d="M519.15,223.77c-5.25,4.62-11.63,7.97-18.68,9.58-.46-.43-.87-.95-1.22-1.57-.87-1.5-1.45-3.39-1.88-5.54h0c-1.1-5.53-1.29-12.78-3.22-19.69-.09-.41-.16-.8-.21-1.19-.4-2.58-.07-4.66.58-6.54v-.02c.2-.58.43-1.15.68-1.7,1.41-3.13,3.4-5.91,3.86-9.96-.19-7.88-6.7-12.53-12.13-18.29-4.9.06-8.47,6.7-10.86,10.85-.99,1.34-1.93,3.11-2.28,5.28-.23,1.45-.16,2.91.15,4.36.05.22.11.43.17.65.03.13.07.27.12.4,1.04,3.4,3.49,6.61,6.93,9.04-.41,2.4-.61,4.57-.61,6.5,0,4.2.81,7.33,1.75,9.65.88,2.16,2.81,5.94,1.71,10.25-.37,1.44-.97,2.55-1.45,3.27-.28.78-.72,1.74-1.44,2.73-.34.48-.7.89-1.03,1.23-5.57-1.44-10.69-3.96-15.13-7.34.15-1.07.48-2.21,1.02-3.39.97-12.51-.74-21.6-2.68-27.88-1.29-4.18-3.89-11.26-.6-15.76,1.4-1.91,2.34-1.37,4.19-3.39,4.36-4.77,1.49-10.32,3.99-14.17,3.73-5.76,19.02-6.95,27.33,0,6.74,5.63,4.39,13.25,12.22,30.39,2.85,6.23,5.84,11.09,8.02,14.34.25.54.48,1.07.69,1.6,2.41,6.11,1.96,11.74.02,16.3Z"/><path class="cls-2" d="M570.23,190.47c0-44.16,25.05-71.52,64.41-71.52,32.16,0,56.64,20.06,59.71,49.82h-24.38c-3.26-17.38-17.37-28.8-35.33-28.8-23.81,0-39.07,19.58-39.07,50.49s15.17,50.59,39.17,50.59c18.34,0,31.49-9.89,35.33-26.59h24.29c-4.32,29.66-26.98,47.61-59.71,47.61-39.55,0-64.41-27.17-64.41-71.61Z"/><path class="cls-2" d="M802.71,259.78h-89.66V121.26h89.66v20.93h-64.89v37.44h61.34v19.68h-61.34v39.55h64.89v20.93Z"/><path class="cls-2" d="M911.85,259.78h-87.64V121.26h24.77v117.59h62.88v20.93Z"/><path class="cls-2" d="M1019.25,259.78h-89.66V121.26h89.66v20.93h-64.89v37.44h61.34v19.68h-61.34v39.55h64.89v20.93Z"/><path class="cls-2" d="M1059.07,220.81c1.54,12.77,14.3,21.12,31.2,21.12s28.32-8.26,28.32-19.77c0-9.98-7.1-15.74-24.57-19.87l-17.95-4.22c-25.54-5.86-37.63-18.14-37.63-37.92,0-24.57,21.41-41.18,51.55-41.18s50.69,16.51,51.26,40.89h-23.62c-1.15-12.96-12-20.74-27.84-20.74s-26.21,7.68-26.21,19.2c0,9.22,7.01,14.59,24,18.62l15.94,3.65c28.12,6.43,40.03,18.05,40.03,38.69,0,26.3-21.12,42.81-54.62,42.81s-52.8-15.74-53.86-41.28h24Z"/><path id="_9" class="cls-6" d="M449.88,210.83c-4.07-9.67-5.19-20.53-2.29-30.79,3.06-10.84,7.96-20.84,17.37-27.34,4.27-2.96,9.04-5.18,14.05-6.58,2.42-.68,4.91-1.16,7.41-1.42,1.88-.19,5.48.52,7.1-.16-8.49,3.59-16.66,8.5-22.37,15.74-7.22,9.16-9.4,21.66-6.64,32.88,1.36,5.56,3.96,10.83,7.7,15.18,4.13,4.8,10.3,6.76,14.44,11.32,2.7,2.97,4.94,6.52,5.17,10.63.68,12.14-13.88,8.71-20.48,4.99-9.6-5.42-17.18-14.27-21.47-24.46Z"/><line class="cls-14" x1="23.28" y1="282.77" x2="466.87" y2="282.77"/><polygon class="cls-1" points="481.83 113.68 524.78 72.45 1143.78 72.23 1133.12 86.45 529.06 86.45 501.22 114.12 481.83 113.68"/><polygon class="cls-1" points="486.83 113.68 528.73 72.23 1148.78 72.23 1138.12 86.45 534.06 86.45 506.22 114.12 486.83 113.68"/><line class="cls-13" x1="507.74" y1="99.77" x2="1132.23" y2="99.77"/><rect class="cls-15" x="470.67" y="23.7" width="65.92" height="65.92" transform="translate(107.45 372.72) rotate(-45)"/><rect class="cls-15" x="444.58" y="293.75" width="65.92" height="65.92" transform="translate(-91.15 433.36) rotate(-45)"/><rect class="cls-2" x="464.68" y="313.85" width="25.71" height="25.71" transform="translate(-91.15 433.36) rotate(-45)"/><rect class="cls-2" x="490.77" y="43.8" width="25.71" height="25.71" transform="translate(107.45 372.72) rotate(-45)"/><polygon class="cls-3" points="505.78 114.45 480.78 114.45 524.03 72.7 547.78 72.45 505.78 114.45"/><text class="cls-10" transform="translate(566.8 56.3)"><tspan class="cls-11" x="0" y="0">C</tspan><tspan x="37.24" y="0">andida</tspan><tspan class="cls-12" x="196.9" y="0">t</tspan><tspan class="cls-16" x="214.35" y="0">as y </tspan><tspan class="cls-9" x="317.93" y="0">C</tspan><tspan x="355.16" y="0">andida</tspan><tspan class="cls-17" x="514.83" y="0">t</tspan><tspan x="532.12" y="0">os</tspan></text></g></svg>